<mxfile host="app.diagrams.net" agent="Mozilla/5.0 (Macintosh; Intel Mac OS X 10_15_7) AppleWebKit/537.36 (KHTML, like Gecko) Chrome/131.0.0.0 Safari/537.36" version="25.0.3">
  <diagram name="Page 1" id="uemYFG_Onp3th6G_46Ug">
    <mxGraphModel dx="2474" dy="1127" grid="0" gridSize="10" guides="1" tooltips="1" connect="1" arrows="1" fold="1" page="0" pageScale="1" pageWidth="827" pageHeight="1169" math="0" shadow="0">
      <root>
        <mxCell id="0" />
        <mxCell id="1" parent="0" />
        <mxCell id="s05ltgYdW4IM1Vw1v8kq-57" value="" style="rounded=0;whiteSpace=wrap;html=1;" parent="1" vertex="1">
          <mxGeometry x="-259" y="45" width="1941" height="969" as="geometry" />
        </mxCell>
        <mxCell id="s05ltgYdW4IM1Vw1v8kq-51" value="" style="rounded=0;whiteSpace=wrap;html=1;" parent="1" vertex="1">
          <mxGeometry x="-187.55" y="253" width="1758" height="620" as="geometry" />
        </mxCell>
        <mxCell id="s05ltgYdW4IM1Vw1v8kq-33" value="" style="shape=image;verticalLabelPosition=bottom;verticalAlign=top;imageAspect=0;image=https://raw.githubusercontent.com/Chiunownow/StagePlotPirate/main/src/img/seat/pianobench.png;" parent="1" vertex="1">
          <mxGeometry x="-96" y="420.25" width="68" height="39" as="geometry" />
        </mxCell>
        <mxCell id="s05ltgYdW4IM1Vw1v8kq-18" value="" style="shape=image;verticalLabelPosition=bottom;verticalAlign=top;imageAspect=0;image=https://raw.githubusercontent.com/Chiunownow/StagePlotPirate/main/src/img/drum/drummat.png;" parent="1" vertex="1">
          <mxGeometry x="329.09999999999997" y="297" width="360.79" height="315" as="geometry" />
        </mxCell>
        <mxCell id="s05ltgYdW4IM1Vw1v8kq-1" value="" style="shape=image;verticalLabelPosition=bottom;verticalAlign=top;imageAspect=0;image=https://raw.githubusercontent.com/Chiunownow/StagePlotPirate/main/src/img/egt/marshall.png;" parent="1" vertex="1">
          <mxGeometry x="159.5" y="316.25" width="69" height="61" as="geometry" />
        </mxCell>
        <mxCell id="s05ltgYdW4IM1Vw1v8kq-2" value="" style="shape=image;verticalLabelPosition=bottom;verticalAlign=top;imageAspect=0;image=https://raw.githubusercontent.com/Chiunownow/StagePlotPirate/main/src/img/egt/eguitarist.png;" parent="1" vertex="1">
          <mxGeometry x="155.25" y="417.25" width="107" height="78" as="geometry" />
        </mxCell>
        <mxCell id="s05ltgYdW4IM1Vw1v8kq-3" value="" style="shape=image;verticalLabelPosition=bottom;verticalAlign=top;imageAspect=0;image=https://raw.githubusercontent.com/Chiunownow/StagePlotPirate/main/src/img/gt_stand/guitarstand.png;" parent="1" vertex="1">
          <mxGeometry x="119" y="353.25" width="50" height="53" as="geometry" />
        </mxCell>
        <mxCell id="s05ltgYdW4IM1Vw1v8kq-4" value="" style="shape=image;verticalLabelPosition=bottom;verticalAlign=top;imageAspect=0;image=https://raw.githubusercontent.com/Chiunownow/StagePlotPirate/main/src/img/mic_stand/K&amp;Mstand.png;" parent="1" vertex="1">
          <mxGeometry x="166.75" y="449.25" width="50" height="112" as="geometry" />
        </mxCell>
        <mxCell id="s05ltgYdW4IM1Vw1v8kq-5" value="" style="shape=image;verticalLabelPosition=bottom;verticalAlign=top;imageAspect=0;image=https://raw.githubusercontent.com/Chiunownow/StagePlotPirate/main/src/img/monitor/Wedge.png;" parent="1" vertex="1">
          <mxGeometry x="147.25" y="534.75" width="40" height="39" as="geometry" />
        </mxCell>
        <mxCell id="s05ltgYdW4IM1Vw1v8kq-6" value="" style="shape=image;verticalLabelPosition=bottom;verticalAlign=top;imageAspect=0;image=https://raw.githubusercontent.com/Chiunownow/StagePlotPirate/main/src/img/monitor/IEMwired.png;" parent="1" vertex="1">
          <mxGeometry x="131.75" y="457.25" width="35" height="54" as="geometry" />
        </mxCell>
        <mxCell id="s05ltgYdW4IM1Vw1v8kq-7" value="" style="shape=image;verticalLabelPosition=bottom;verticalAlign=top;imageAspect=0;image=https://raw.githubusercontent.com/Chiunownow/StagePlotPirate/main/src/img/mic_stand/BoomLshortL.png;" parent="1" vertex="1">
          <mxGeometry x="199.5" y="366.25" width="65" height="51" as="geometry" />
        </mxCell>
        <mxCell id="s05ltgYdW4IM1Vw1v8kq-8" value="" style="shape=image;verticalLabelPosition=bottom;verticalAlign=top;imageAspect=0;image=https://raw.githubusercontent.com/Chiunownow/StagePlotPirate/main/src/img/drum/drumshield_two.png;rotation=0;" parent="1" vertex="1">
          <mxGeometry x="339.9999999999999" y="397.5" width="321.21" height="160" as="geometry" />
        </mxCell>
        <mxCell id="s05ltgYdW4IM1Vw1v8kq-9" value="" style="shape=image;verticalLabelPosition=bottom;verticalAlign=top;imageAspect=0;image=https://raw.githubusercontent.com/Chiunownow/StagePlotPirate/main/src/img/drum/ThreeToms.png;" parent="1" vertex="1">
          <mxGeometry x="391.5999999999999" y="384" width="198" height="122" as="geometry" />
        </mxCell>
        <mxCell id="s05ltgYdW4IM1Vw1v8kq-10" value="" style="shape=image;verticalLabelPosition=bottom;verticalAlign=top;imageAspect=0;image=https://raw.githubusercontent.com/Chiunownow/StagePlotPirate/main/src/img/drum/drummer.png;" parent="1" vertex="1">
          <mxGeometry x="479.9999999999999" y="364" width="59" height="72" as="geometry" />
        </mxCell>
        <mxCell id="s05ltgYdW4IM1Vw1v8kq-11" value="" style="shape=image;verticalLabelPosition=bottom;verticalAlign=top;imageAspect=0;image=https://raw.githubusercontent.com/Chiunownow/StagePlotPirate/main/src/img/monitor/Wedge.png;rotation=90;" parent="1" vertex="1">
          <mxGeometry x="361.5999999999999" y="364" width="40" height="39" as="geometry" />
        </mxCell>
        <mxCell id="s05ltgYdW4IM1Vw1v8kq-12" value="" style="shape=image;verticalLabelPosition=bottom;verticalAlign=top;imageAspect=0;image=https://raw.githubusercontent.com/Chiunownow/StagePlotPirate/main/src/img/monitor/IEMwired.png;" parent="1" vertex="1">
          <mxGeometry x="413.9999999999999" y="330" width="35" height="54" as="geometry" />
        </mxCell>
        <mxCell id="s05ltgYdW4IM1Vw1v8kq-13" value="" style="shape=image;verticalLabelPosition=bottom;verticalAlign=top;imageAspect=0;image=https://raw.githubusercontent.com/Chiunownow/StagePlotPirate/main/src/img/device/LaptopL.png;" parent="1" vertex="1">
          <mxGeometry x="593.4" y="395" width="38" height="59" as="geometry" />
        </mxCell>
        <mxCell id="s05ltgYdW4IM1Vw1v8kq-14" value="" style="shape=image;verticalLabelPosition=bottom;verticalAlign=top;imageAspect=0;image=https://raw.githubusercontent.com/Chiunownow/StagePlotPirate/main/src/img/device/DI.png;" parent="1" vertex="1">
          <mxGeometry x="593.4" y="357" width="29" height="27" as="geometry" />
        </mxCell>
        <mxCell id="s05ltgYdW4IM1Vw1v8kq-15" value="" style="shape=image;verticalLabelPosition=bottom;verticalAlign=top;imageAspect=0;image=https://raw.githubusercontent.com/Chiunownow/StagePlotPirate/main/src/img/device/stereoDI.png;" parent="1" vertex="1">
          <mxGeometry x="639.9" y="357" width="35" height="53" as="geometry" />
        </mxCell>
        <mxCell id="s05ltgYdW4IM1Vw1v8kq-16" value="Click" style="text;html=1;align=center;verticalAlign=middle;resizable=0;points=[];autosize=1;strokeColor=none;fillColor=none;" parent="1" vertex="1">
          <mxGeometry x="581" y="335" width="50" height="30" as="geometry" />
        </mxCell>
        <mxCell id="s05ltgYdW4IM1Vw1v8kq-17" value="Program" style="text;html=1;align=center;verticalAlign=middle;resizable=0;points=[];autosize=1;strokeColor=none;fillColor=none;" parent="1" vertex="1">
          <mxGeometry x="622.4" y="335" width="70" height="30" as="geometry" />
        </mxCell>
        <mxCell id="s05ltgYdW4IM1Vw1v8kq-19" value="" style="shape=image;verticalLabelPosition=bottom;verticalAlign=top;imageAspect=0;image=https://raw.githubusercontent.com/Chiunownow/StagePlotPirate/main/src/img/bass/eighttens.png;" parent="1" vertex="1">
          <mxGeometry x="839.5" y="304.5" width="75" height="83" as="geometry" />
        </mxCell>
        <mxCell id="s05ltgYdW4IM1Vw1v8kq-20" value="" style="shape=image;verticalLabelPosition=bottom;verticalAlign=top;imageAspect=0;image=https://raw.githubusercontent.com/Chiunownow/StagePlotPirate/main/src/img/gt_stand/guitarstand.png;" parent="1" vertex="1">
          <mxGeometry x="804" y="365.5" width="50" height="53" as="geometry" />
        </mxCell>
        <mxCell id="s05ltgYdW4IM1Vw1v8kq-22" value="" style="shape=image;verticalLabelPosition=bottom;verticalAlign=top;imageAspect=0;image=https://raw.githubusercontent.com/Chiunownow/StagePlotPirate/main/src/img/monitor/Wedge.png;" parent="1" vertex="1">
          <mxGeometry x="837.5" y="554" width="40" height="39" as="geometry" />
        </mxCell>
        <mxCell id="s05ltgYdW4IM1Vw1v8kq-23" value="" style="shape=image;verticalLabelPosition=bottom;verticalAlign=top;imageAspect=0;image=https://raw.githubusercontent.com/Chiunownow/StagePlotPirate/main/src/img/monitor/IEMwired.png;" parent="1" vertex="1">
          <mxGeometry x="819.5" y="482" width="35" height="54" as="geometry" />
        </mxCell>
        <mxCell id="s05ltgYdW4IM1Vw1v8kq-24" value="" style="shape=image;verticalLabelPosition=bottom;verticalAlign=top;imageAspect=0;image=https://raw.githubusercontent.com/Chiunownow/StagePlotPirate/main/src/img/bass/Beguitarist.png;" parent="1" vertex="1">
          <mxGeometry x="847.5" y="430" width="112" height="66" as="geometry" />
        </mxCell>
        <mxCell id="s05ltgYdW4IM1Vw1v8kq-25" value="" style="shape=image;verticalLabelPosition=bottom;verticalAlign=top;imageAspect=0;image=https://raw.githubusercontent.com/Chiunownow/StagePlotPirate/main/src/img/device/DI.png;" parent="1" vertex="1">
          <mxGeometry x="902.5" y="391.5" width="29" height="27" as="geometry" />
        </mxCell>
        <mxCell id="s05ltgYdW4IM1Vw1v8kq-21" value="" style="shape=image;verticalLabelPosition=bottom;verticalAlign=top;imageAspect=0;image=https://raw.githubusercontent.com/Chiunownow/StagePlotPirate/main/src/img/mic_stand/K&amp;Mstand.png;" parent="1" vertex="1">
          <mxGeometry x="857.5" y="470" width="50" height="112" as="geometry" />
        </mxCell>
        <mxCell id="s05ltgYdW4IM1Vw1v8kq-26" value="" style="shape=image;verticalLabelPosition=bottom;verticalAlign=top;imageAspect=0;image=https://raw.githubusercontent.com/Chiunownow/StagePlotPirate/main/src/img/keyborad/NordStage88.png;" parent="1" vertex="1">
          <mxGeometry x="-127" y="471.25" width="130" height="53" as="geometry" />
        </mxCell>
        <mxCell id="s05ltgYdW4IM1Vw1v8kq-29" value="" style="shape=image;verticalLabelPosition=bottom;verticalAlign=top;imageAspect=0;image=https://raw.githubusercontent.com/Chiunownow/StagePlotPirate/main/src/img/monitor/IEMwired.png;" parent="1" vertex="1">
          <mxGeometry x="-24" y="502.25" width="35" height="54" as="geometry" />
        </mxCell>
        <mxCell id="s05ltgYdW4IM1Vw1v8kq-31" value="" style="shape=image;verticalLabelPosition=bottom;verticalAlign=top;imageAspect=0;image=https://raw.githubusercontent.com/Chiunownow/StagePlotPirate/main/src/img/device/stereoDI.png;" parent="1" vertex="1">
          <mxGeometry x="-19" y="422.25" width="35" height="53" as="geometry" />
        </mxCell>
        <mxCell id="s05ltgYdW4IM1Vw1v8kq-27" value="" style="shape=image;verticalLabelPosition=bottom;verticalAlign=top;imageAspect=0;image=https://raw.githubusercontent.com/Chiunownow/StagePlotPirate/main/src/img/keyborad/keyboardist.png;" parent="1" vertex="1">
          <mxGeometry x="-97.5" y="417.25" width="71" height="67" as="geometry" />
        </mxCell>
        <mxCell id="s05ltgYdW4IM1Vw1v8kq-30" value="" style="shape=image;verticalLabelPosition=bottom;verticalAlign=top;imageAspect=0;image=https://raw.githubusercontent.com/Chiunownow/StagePlotPirate/main/src/img/mic_stand/Left_Vocal.png;" parent="1" vertex="1">
          <mxGeometry x="-124" y="441.25" width="60" height="132" as="geometry" />
        </mxCell>
        <mxCell id="s05ltgYdW4IM1Vw1v8kq-28" value="" style="shape=image;verticalLabelPosition=bottom;verticalAlign=top;imageAspect=0;image=https://raw.githubusercontent.com/Chiunownow/StagePlotPirate/main/src/img/monitor/Wedge.png;" parent="1" vertex="1">
          <mxGeometry x="-82" y="536.25" width="40" height="39" as="geometry" />
        </mxCell>
        <mxCell id="s05ltgYdW4IM1Vw1v8kq-34" value="" style="shape=image;verticalLabelPosition=bottom;verticalAlign=top;imageAspect=0;image=https://raw.githubusercontent.com/Chiunownow/StagePlotPirate/main/src/img/egt/marshall.png;" parent="1" vertex="1">
          <mxGeometry x="1098.5" y="316.25" width="69" height="61" as="geometry" />
        </mxCell>
        <mxCell id="s05ltgYdW4IM1Vw1v8kq-35" value="" style="shape=image;verticalLabelPosition=bottom;verticalAlign=top;imageAspect=0;image=https://raw.githubusercontent.com/Chiunownow/StagePlotPirate/main/src/img/egt/eguitarist.png;" parent="1" vertex="1">
          <mxGeometry x="1094.25" y="417.25" width="107" height="78" as="geometry" />
        </mxCell>
        <mxCell id="s05ltgYdW4IM1Vw1v8kq-36" value="" style="shape=image;verticalLabelPosition=bottom;verticalAlign=top;imageAspect=0;image=https://raw.githubusercontent.com/Chiunownow/StagePlotPirate/main/src/img/gt_stand/guitarstand.png;" parent="1" vertex="1">
          <mxGeometry x="1058" y="353.25" width="50" height="53" as="geometry" />
        </mxCell>
        <mxCell id="s05ltgYdW4IM1Vw1v8kq-37" value="" style="shape=image;verticalLabelPosition=bottom;verticalAlign=top;imageAspect=0;image=https://raw.githubusercontent.com/Chiunownow/StagePlotPirate/main/src/img/mic_stand/K&amp;Mstand.png;" parent="1" vertex="1">
          <mxGeometry x="1105.75" y="449.25" width="50" height="112" as="geometry" />
        </mxCell>
        <mxCell id="s05ltgYdW4IM1Vw1v8kq-38" value="" style="shape=image;verticalLabelPosition=bottom;verticalAlign=top;imageAspect=0;image=https://raw.githubusercontent.com/Chiunownow/StagePlotPirate/main/src/img/monitor/Wedge.png;" parent="1" vertex="1">
          <mxGeometry x="1086.25" y="534.75" width="40" height="39" as="geometry" />
        </mxCell>
        <mxCell id="s05ltgYdW4IM1Vw1v8kq-39" value="" style="shape=image;verticalLabelPosition=bottom;verticalAlign=top;imageAspect=0;image=https://raw.githubusercontent.com/Chiunownow/StagePlotPirate/main/src/img/monitor/IEMwired.png;" parent="1" vertex="1">
          <mxGeometry x="1070.75" y="457.25" width="35" height="54" as="geometry" />
        </mxCell>
        <mxCell id="s05ltgYdW4IM1Vw1v8kq-40" value="" style="shape=image;verticalLabelPosition=bottom;verticalAlign=top;imageAspect=0;image=https://raw.githubusercontent.com/Chiunownow/StagePlotPirate/main/src/img/mic_stand/BoomLshortL.png;" parent="1" vertex="1">
          <mxGeometry x="1138.5" y="366.25" width="65" height="51" as="geometry" />
        </mxCell>
        <mxCell id="s05ltgYdW4IM1Vw1v8kq-41" value="" style="shape=image;verticalLabelPosition=bottom;verticalAlign=top;imageAspect=0;image=https://raw.githubusercontent.com/Chiunownow/StagePlotPirate/main/src/img/artist/Girl.png;" parent="1" vertex="1">
          <mxGeometry x="1339" y="375.25" width="80" height="82" as="geometry" />
        </mxCell>
        <mxCell id="s05ltgYdW4IM1Vw1v8kq-42" value="" style="shape=image;verticalLabelPosition=bottom;verticalAlign=top;imageAspect=0;image=https://raw.githubusercontent.com/Chiunownow/StagePlotPirate/main/src/img/artist/Man1.png;" parent="1" vertex="1">
          <mxGeometry x="1271" y="384.75" width="49" height="63" as="geometry" />
        </mxCell>
        <mxCell id="s05ltgYdW4IM1Vw1v8kq-43" value="" style="shape=image;verticalLabelPosition=bottom;verticalAlign=top;imageAspect=0;image=https://raw.githubusercontent.com/Chiunownow/StagePlotPirate/main/src/img/mic_stand/Center_Vocal.png;" parent="1" vertex="1">
          <mxGeometry x="1285" y="422.25" width="28" height="100" as="geometry" />
        </mxCell>
        <mxCell id="s05ltgYdW4IM1Vw1v8kq-44" value="" style="shape=image;verticalLabelPosition=bottom;verticalAlign=top;imageAspect=0;image=https://raw.githubusercontent.com/Chiunownow/StagePlotPirate/main/src/img/mic_stand/Center_Vocal.png;" parent="1" vertex="1">
          <mxGeometry x="1365" y="422.25" width="28" height="100" as="geometry" />
        </mxCell>
        <mxCell id="s05ltgYdW4IM1Vw1v8kq-45" value="" style="shape=image;verticalLabelPosition=bottom;verticalAlign=top;imageAspect=0;image=https://raw.githubusercontent.com/Chiunownow/StagePlotPirate/main/src/img/monitor/IEMwired.png;" parent="1" vertex="1">
          <mxGeometry x="1408" y="430.25" width="35" height="54" as="geometry" />
        </mxCell>
        <mxCell id="s05ltgYdW4IM1Vw1v8kq-46" value="" style="shape=image;verticalLabelPosition=bottom;verticalAlign=top;imageAspect=0;image=https://raw.githubusercontent.com/Chiunownow/StagePlotPirate/main/src/img/monitor/IEMwired.png;" parent="1" vertex="1">
          <mxGeometry x="1313" y="430.25" width="35" height="54" as="geometry" />
        </mxCell>
        <mxCell id="s05ltgYdW4IM1Vw1v8kq-47" value="" style="shape=image;verticalLabelPosition=bottom;verticalAlign=top;imageAspect=0;image=https://raw.githubusercontent.com/Chiunownow/StagePlotPirate/main/src/img/music_stand/standw2lampsLA.png;" parent="1" vertex="1">
          <mxGeometry x="1402" y="492" width="51" height="58" as="geometry" />
        </mxCell>
        <mxCell id="s05ltgYdW4IM1Vw1v8kq-49" value="" style="shape=image;verticalLabelPosition=bottom;verticalAlign=top;imageAspect=0;image=https://raw.githubusercontent.com/Chiunownow/StagePlotPirate/main/src/img/music_stand/standw2lampsLA.png;" parent="1" vertex="1">
          <mxGeometry x="1311" y="492" width="51" height="58" as="geometry" />
        </mxCell>
        <mxCell id="s05ltgYdW4IM1Vw1v8kq-50" value="" style="shape=image;verticalLabelPosition=bottom;verticalAlign=top;imageAspect=0;image=https://raw.githubusercontent.com/Chiunownow/StagePlotPirate/main/src/img/singer/singer.png;" parent="1" vertex="1">
          <mxGeometry x="657" y="711" width="68.9" height="104" as="geometry" />
        </mxCell>
        <mxCell id="s05ltgYdW4IM1Vw1v8kq-52" value="" style="shape=image;verticalLabelPosition=bottom;verticalAlign=top;imageAspect=0;image=https://raw.githubusercontent.com/Chiunownow/StagePlotPirate/main/src/img/equipment/LED_Wall.png;" parent="1" vertex="1">
          <mxGeometry x="-185.5" y="144" width="1757.5" height="92" as="geometry" />
        </mxCell>
        <mxCell id="s05ltgYdW4IM1Vw1v8kq-53" value="" style="shape=image;verticalLabelPosition=bottom;verticalAlign=top;imageAspect=0;image=https://raw.githubusercontent.com/Chiunownow/StagePlotPirate/main/src/img/monitor/Wedge.png;" parent="1" vertex="1">
          <mxGeometry x="622.4" y="825" width="40" height="39" as="geometry" />
        </mxCell>
        <mxCell id="s05ltgYdW4IM1Vw1v8kq-54" value="" style="shape=image;verticalLabelPosition=bottom;verticalAlign=top;imageAspect=0;image=https://raw.githubusercontent.com/Chiunownow/StagePlotPirate/main/src/img/monitor/Wedge.png;" parent="1" vertex="1">
          <mxGeometry x="713" y="825" width="40" height="39" as="geometry" />
        </mxCell>
        <mxCell id="s05ltgYdW4IM1Vw1v8kq-55" value="" style="shape=image;verticalLabelPosition=bottom;verticalAlign=top;imageAspect=0;image=https://raw.githubusercontent.com/Chiunownow/StagePlotPirate/main/src/img/monitor/Wedge.png;" parent="1" vertex="1">
          <mxGeometry x="270" y="825" width="40" height="39" as="geometry" />
        </mxCell>
        <mxCell id="s05ltgYdW4IM1Vw1v8kq-56" value="" style="shape=image;verticalLabelPosition=bottom;verticalAlign=top;imageAspect=0;image=https://raw.githubusercontent.com/Chiunownow/StagePlotPirate/main/src/img/monitor/Wedge.png;" parent="1" vertex="1">
          <mxGeometry x="1070.75" y="825" width="40" height="39" as="geometry" />
        </mxCell>
      </root>
    </mxGraphModel>
  </diagram>
</mxfile>
